<svg xmlns="http://www.w3.org/2000/svg" viewBox="0 0 24 24">
  <path d="M7 1C6.448 1 6 1.448 6 2L6 3L5 3C3.895 3 3 3.895 3 5L3 19C3 20.105 3.895 21 5 21L16.171875 21L14.171875 19L5 19L5 8L19 8L19 14.171875L21 16.171875L21 5C21 3.895 20.105 3 19 3L18 3L18 2C18 1.448 17.552 1 17 1C16.448 1 16 1.448 16 2L16 3L8 3L8 2C8 1.448 7.552 1 7 1 z M 8 11C7.448 11 7 11.448 7 12C7 12.552 7.448 13 8 13L16 13C16.552 13 17 12.552 17 12C17 11.448 16.552 11 16 11L8 11 z M 8 15C7.448 15 7 15.448 7 16C7 16.552 7.448 17 8 17L12 17C12.552 17 13 16.552 13 16C13 15.448 12.552 15 12 15L8 15 z M 15.5 15C15.224 15 15 15.224 15 15.5L15 16.792969C15 16.924969 15.052484 17.052484 15.146484 17.146484L20.146484 22.146484L22.146484 20.146484L17.146484 15.146484C17.052484 15.053484 16.925969 15 16.792969 15L15.5 15 z M 22.853516 20.853516L20.853516 22.853516L21.585938 23.585938C22.137937 24.137937 23.033937 24.137938 23.585938 23.585938C24.137938 23.033938 24.137938 22.137938 23.585938 21.585938L22.853516 20.853516 z" />
</svg>
