<svg xmlns="http://www.w3.org/2000/svg" viewBox="0 0 24 24">
  <path d="M12 2C10.814 2 9.5418125 3.6912344 8.7578125 6.3652344C8.6648125 6.6822344 8.9121875 7 9.2421875 7L14.757812 7C15.087813 7 15.334188 6.6822344 15.242188 6.3652344C14.458187 3.6912344 13.186 2 12 2 z M 8.0664062 2.8085938C6.2694063 3.5805938 4.7487344 4.8665156 3.6777344 6.4785156C3.5307344 6.6995156 3.6968906 7 3.9628906 7L5.9296875 7C6.3556875 7 6.5475625 6.8363281 6.6015625 6.6113281C6.9555625 5.1343281 7.4554063 3.8475937 8.0664062 2.8085938 z M 15.933594 2.8085938C16.544594 3.8475937 17.044437 5.1353281 17.398438 6.6113281C17.452437 6.8363281 17.651813 7 17.882812 7L20.033203 7C20.299203 7 20.469266 6.6995156 20.322266 6.4785156C19.251266 4.8665156 17.730594 3.5805938 15.933594 2.8085938 z M 2.71875 9C2.56675 9 2.4287188 9.0991406 2.3867188 9.2441406C2.1357188 10.120141 2 11.045 2 12C2 12.955 2.1357188 13.879859 2.3867188 14.755859C2.4287187 14.900859 2.56675 15 2.71875 15L5.6289062 15C5.9249063 15 6.1500937 14.747125 6.1210938 14.453125C6.0440937 13.665125 6 12.848 6 12C6 11.152 6.0430937 10.334875 6.1210938 9.546875C6.1500937 9.252875 5.9249063 9 5.6289062 9L2.71875 9 z M 8.6484375 9C8.3944375 9 8.1764844 9.1855 8.1464844 9.4375C8.0524844 10.2495 8 11.107 8 12C8 12.893 8.0524844 13.7505 8.1464844 14.5625C8.1764844 14.8145 8.3944375 15 8.6484375 15L15.351562 15C15.605562 15 15.823516 14.8145 15.853516 14.5625C15.947516 13.7505 16 12.893 16 12C16 11.107 15.947516 10.2495 15.853516 9.4375C15.823516 9.1855 15.605563 9 15.351562 9L8.6484375 9 z M 18.371094 9C18.075094 9 17.849906 9.252875 17.878906 9.546875C17.955906 10.334875 18 11.152 18 12C18 12.848 17.956906 13.665125 17.878906 14.453125C17.849906 14.747125 18.075094 15 18.371094 15L21.28125 15C21.43325 15 21.571281 14.900859 21.613281 14.755859C21.864281 13.879859 22 12.955 22 12C22 11.045 21.864281 10.120141 21.613281 9.2441406C21.571281 9.0991406 21.43325 9 21.28125 9L18.371094 9 z M 3.9667969 17C3.7007969 17 3.5307344 17.300484 3.6777344 17.521484C4.7487344 19.133484 6.2694063 20.419406 8.0664062 21.191406C7.4554063 20.152406 6.9555625 18.864672 6.6015625 17.388672C6.5475625 17.163672 6.3481875 17 6.1171875 17L3.9667969 17 z M 9.2421875 17C8.9121875 17 8.6658125 17.317766 8.7578125 17.634766C9.5418125 20.308766 10.814 22 12 22C13.186 22 14.458188 20.308766 15.242188 17.634766C15.335187 17.317766 15.087812 17 14.757812 17L9.2421875 17 z M 18.070312 17C17.644312 17 17.452437 17.163672 17.398438 17.388672C17.044438 18.865672 16.544594 20.152406 15.933594 21.191406C17.730594 20.419406 19.251266 19.133484 20.322266 17.521484C20.469266 17.300484 20.303109 17 20.037109 17L18.070312 17 z" />
</svg>
