<svg xmlns="http://www.w3.org/2000/svg" viewBox="0 0 24 24">
  <path d="M18.257,3.685L14.969,5L9.664,3.232c-0.449-0.15-0.936-0.135-1.375,0.04L4.257,4.885C3.498,5.189,3,5.924,3,6.742v11.845 c0,1.415,1.429,2.382,2.743,1.857l3.289-1.315l5.305,1.768c0.449,0.15,0.936,0.135,1.375-0.04l4.031-1.613 C20.502,18.94,21,18.205,21,17.387V5.542C21,4.127,19.571,3.159,18.257,3.685z M15,17.605c0,0.681-0.666,1.163-1.313,0.95l-4-1.318 C9.277,17.102,9,16.719,9,16.287V6.524c0-0.681,0.666-1.163,1.313-0.95l4,1.318C14.723,7.027,15,7.41,15,7.842V17.605z" />
</svg>
