<svg xmlns="http://www.w3.org/2000/svg" viewBox="0 0 24 24">
  <path d="M19.625 2.0097656C19.496406 1.990875 19.362266 1.9965 19.228516 2.03125L3.9902344 6L11.927734 6L17.884766 4.4492188C18.137766 4.8212187 18.543188 5.0606094 18.992188 5.0996094L19.228516 6L21.294922 6L20.447266 2.7480469C20.343016 2.3475469 20.010781 2.0664375 19.625 2.0097656 z M 3 8 A 1.0001 1.0001 0 0 0 2 9L2 19 A 1.0001 1.0001 0 0 0 3 20L21 20 A 1.0001 1.0001 0 0 0 22 19L22 9 A 1.0001 1.0001 0 0 0 21 8L3 8 z M 4.9121094 10L19.087891 10 A 1.5 1.5 0 0 0 20 10.912109L20 17.087891 A 1.5 1.5 0 0 0 19.087891 18L4.9121094 18 A 1.5 1.5 0 0 0 4 17.087891L4 10.912109 A 1.5 1.5 0 0 0 4.9121094 10 z M 12 11 A 3 3 0 0 0 9 14 A 3 3 0 0 0 12 17 A 3 3 0 0 0 15 14 A 3 3 0 0 0 12 11 z M 7 13C6.448 13 6 13.447 6 14C6 14.553 6.448 15 7 15C7.552 15 8 14.553 8 14C8 13.447 7.552 13 7 13 z M 17 13C16.448 13 16 13.447 16 14C16 14.553 16.448 15 17 15C17.552 15 18 14.553 18 14C18 13.447 17.552 13 17 13 z" />
</svg>
